<svg xmlns="http://www.w3.org/2000/svg" width="20" height="20" viewBox="0 0 20 20">
    <path fill="#706868" fill-rule="nonzero" d="M10 20c5.514 0 10-4.64 10-10.344a10.54 10.54 0 0 0-2.77-7.141l.577-1.338c.318-.74-.14-1.261-1.023-1.166l-5.174.56c-.884.096-1.177.777-.656 1.52l3.057 4.356c.522.744 1.166.833 1.439.199l.494-1.148a7.606 7.606 0 0 1 1.241 4.158c0 4.099-3.223 7.432-7.185 7.432-3.962 0-7.185-3.334-7.185-7.432 0-1.291.324-2.562.939-3.676.385-.698.15-1.587-.525-1.986-.676-.399-1.535-.155-1.92.544A10.618 10.618 0 0 0 0 9.656C0 15.36 4.486 20 10 20z"/>
</svg>
